<?xml version="1.0" encoding="UTF-8" standalone="no"?>
<!-- Created with Inkscape (http://www.inkscape.org/) -->

<svg
   xmlns:dc="http://purl.org/dc/elements/1.1/"
   xmlns:cc="http://creativecommons.org/ns#"
   xmlns:rdf="http://www.w3.org/1999/02/22-rdf-syntax-ns#"
   xmlns:svg="http://www.w3.org/2000/svg"
   xmlns="http://www.w3.org/2000/svg"
   xmlns:sodipodi="http://sodipodi.sourceforge.net/DTD/sodipodi-0.dtd"
   xmlns:inkscape="http://www.inkscape.org/namespaces/inkscape"
   width="744.09448819"
   height="1052.3622047"
   id="svg6889"
   version="1.1"
   inkscape:version="0.48.4 r9939"
   sodipodi:docname="New document 16">
  <defs
     id="defs6891" />
  <sodipodi:namedview
     id="base"
     pagecolor="#ffffff"
     bordercolor="#666666"
     borderopacity="1.0"
     inkscape:pageopacity="0.0"
     inkscape:pageshadow="2"
     inkscape:zoom="0.35"
     inkscape:cx="375"
     inkscape:cy="520"
     inkscape:document-units="px"
     inkscape:current-layer="layer1"
     showgrid="false"
     inkscape:window-width="1000"
     inkscape:window-height="859"
     inkscape:window-x="286"
     inkscape:window-y="286"
     inkscape:window-maximized="0" />
  <metadata
     id="metadata6894">
    <rdf:RDF>
      <cc:Work
         rdf:about="">
        <dc:format>image/svg+xml</dc:format>
        <dc:type
           rdf:resource="http://purl.org/dc/dcmitype/StillImage" />
        <dc:title></dc:title>
      </cc:Work>
    </rdf:RDF>
  </metadata>
  <g
     inkscape:label="Layer 1"
     inkscape:groupmode="layer"
     id="layer1">
    <g
       id="g5663-7-8-18-2"
       transform="matrix(7.3464036,0,0,12.793338,-5201.1584,-5777.5799)">
      <path
         sodipodi:nodetypes="csccscc"
         inkscape:connector-curvature="0"
         id="path5661-5-2-30-6"
         d="m 758.12132,507.2703 c 0,0 1.12132,14 -1.37868,18.5 -2.5,4.5 -3.64124,7 -3.64124,7 l 14.83794,0 c 0,0 -3.82322,-0.64645 -5.32322,-13.14645 -1.5,-12.5 0.5052,-12.35355 0.5052,-12.35355 z"
         style="fill:#502d16;stroke:#502d16;stroke-width:1px;stroke-linecap:butt;stroke-linejoin:miter;stroke-opacity:1" />
      <path
         inkscape:connector-curvature="0"
         id="path5655-7-7-36-7"
         d="m 710.13724,516.98134 40.40611,-16.16244 -29.29443,6.06091 31.31473,-19.1929 -25.25381,7.07107 27.27412,-19.1929 -20.20305,6.06092 28.28427,-29.29443 27.27412,28.28428 -23.23351,-6.06092 32.32488,22.22336 -30.30458,-11.11168 31.31473,23.23351 -33.33503,-9.09138 41.41625,17.1726 -47.47717,-8.08122 z"
         style="fill:#16502d;stroke:#16502d;stroke-width:1px;stroke-linecap:butt;stroke-linejoin:miter;stroke-opacity:1" />
    </g>
  </g>
</svg>
